<svg width="900" height="1785" viewBox="0 0 900 1785" class="keymap" xmlns="http://www.w3.org/2000/svg" xmlns:xlink="http://www.w3.org/1999/xlink">
<style>/* inherit to force styles through use tags */
svg path {
    fill: inherit;
}

/* font and background color specifications */
svg.keymap {
    font-family: SFMono-Regular,Consolas,Liberation Mono,Menlo,monospace;
    font-size: 14px;
    font-kerning: normal;
    text-rendering: optimizeLegibility;
    fill: #24292e;
}

/* default key styling */
rect.key {
    fill: #f6f8fa;
}

rect.key, rect.combo {
    stroke: #c9cccf;
    stroke-width: 1;
}

/* default key side styling, only used is draw_key_sides is set */
rect.side {
    filter: brightness(90%);
}

/* color accent for combo boxes */
rect.combo, rect.combo-separate {
    fill: #cdf;
}

/* color accent for held keys */
rect.held, rect.combo.held {
    fill: #fdd;
}

/* color accent for ghost (optional) keys */
rect.ghost, rect.combo.ghost {
    stroke-dasharray: 4, 4;
    stroke-width: 2;
}

text {
    text-anchor: middle;
    dominant-baseline: middle;
}

/* styling for layer labels */
text.label {
    font-weight: bold;
    text-anchor: start;
    stroke: white;
    stroke-width: 4;
    paint-order: stroke;
}

/* styling for optional footer */
text.footer {
    text-anchor: end;
    dominant-baseline: auto;
    stroke: white;
    stroke-width: 4;
    paint-order: stroke;
}

/* styling for combo tap, and key hold/shifted label text */
text.combo, text.hold, text.shifted {
    font-size: 11px;
}

text.hold {
    text-anchor: middle;
    dominant-baseline: auto;
}

text.shifted {
    text-anchor: middle;
    dominant-baseline: hanging;
}

/* styling for hold/shifted label text in combo box */
text.combo.hold, text.combo.shifted {
    font-size: 8px;
}

/* lighter symbol for transparent keys */
text.trans {
    fill: #7b7e81;
}

/* styling for combo dendrons */
path.combo {
    stroke-width: 1;
    stroke: gray;
    fill: none;
}

/* Start Tabler Icons Cleanup */
/* cannot use height/width with glyphs */
.icon-tabler > path {
    fill: inherit;
    stroke: inherit;
    stroke-width: 2;
}
/* hide tabler's default box */
.icon-tabler > path[stroke="none"][fill="none"] {
    visibility: hidden;
}
/* End Tabler Icons Cleanup */

@media (prefers-color-scheme: dark) {
svg.keymap { fill: #d1d6db; }
rect.key { fill: #3f4750; }
rect.key, rect.combo { stroke: #60666c; }
rect.combo, rect.combo-separate { fill: #1f3d7a; }
rect.held, rect.combo.held { fill: #854747; }
text.label, text.footer { stroke: black; }
text.trans { fill: #7e8184; }
path.combo { stroke: #7f7f7f; }

}</style>
<g transform="translate(30, 0)" class="layer-Base">
<text x="0" y="28" class="label">Base:</text>
<g transform="translate(0, 56)">
<g transform="translate(35, 61)" class="key keypos-0">
<rect rx="6" ry="6" x="-33" y="-33" width="66" height="66" class="key"/>
<text x="0" y="0" class="key tap">Q</text>
</g>
<g transform="translate(105, 44)" class="key keypos-1">
<rect rx="6" ry="6" x="-33" y="-33" width="66" height="66" class="key"/>
<text x="0" y="0" class="key tap">W</text>
</g>
<g transform="translate(175, 35)" class="key keypos-2">
<rect rx="6" ry="6" x="-33" y="-33" width="66" height="66" class="key"/>
<text x="0" y="0" class="key tap">E</text>
</g>
<g transform="translate(245, 44)" class="key keypos-3">
<rect rx="6" ry="6" x="-33" y="-33" width="66" height="66" class="key"/>
<text x="0" y="0" class="key tap">R</text>
</g>
<g transform="translate(315, 61)" class="key keypos-4">
<rect rx="6" ry="6" x="-33" y="-33" width="66" height="66" class="key"/>
<text x="0" y="0" class="key tap">T</text>
</g>
<g transform="translate(525, 61)" class="key keypos-5">
<rect rx="6" ry="6" x="-33" y="-33" width="66" height="66" class="key"/>
<text x="0" y="0" class="key tap">Y</text>
</g>
<g transform="translate(595, 44)" class="key keypos-6">
<rect rx="6" ry="6" x="-33" y="-33" width="66" height="66" class="key"/>
<text x="0" y="0" class="key tap">U</text>
</g>
<g transform="translate(665, 35)" class="key keypos-7">
<rect rx="6" ry="6" x="-33" y="-33" width="66" height="66" class="key"/>
<text x="0" y="0" class="key tap">I</text>
</g>
<g transform="translate(735, 44)" class="key keypos-8">
<rect rx="6" ry="6" x="-33" y="-33" width="66" height="66" class="key"/>
<text x="0" y="0" class="key tap">O</text>
</g>
<g transform="translate(805, 61)" class="key keypos-9">
<rect rx="6" ry="6" x="-33" y="-33" width="66" height="66" class="key"/>
<text x="0" y="0" class="key tap">P</text>
</g>
<g transform="translate(35, 131)" class="key keypos-10">
<rect rx="6" ry="6" x="-33" y="-33" width="66" height="66" class="key"/>
<text x="0" y="0" class="key tap">A</text>
<text x="0" y="31" class="key hold">Gui</text>
</g>
<g transform="translate(105, 114)" class="key keypos-11">
<rect rx="6" ry="6" x="-33" y="-33" width="66" height="66" class="key"/>
<text x="0" y="0" class="key tap">S</text>
<text x="0" y="31" class="key hold">Alt</text>
</g>
<g transform="translate(175, 105)" class="key keypos-12">
<rect rx="6" ry="6" x="-33" y="-33" width="66" height="66" class="key"/>
<text x="0" y="0" class="key tap">D</text>
<text x="0" y="31" class="key hold">Control</text>
</g>
<g transform="translate(245, 114)" class="key keypos-13">
<rect rx="6" ry="6" x="-33" y="-33" width="66" height="66" class="key"/>
<text x="0" y="0" class="key tap">F</text>
<text x="0" y="31" class="key hold">Shift</text>
</g>
<g transform="translate(315, 131)" class="key keypos-14">
<rect rx="6" ry="6" x="-33" y="-33" width="66" height="66" class="key"/>
<text x="0" y="0" class="key tap">G</text>
</g>
<g transform="translate(525, 131)" class="key keypos-15">
<rect rx="6" ry="6" x="-33" y="-33" width="66" height="66" class="key"/>
<text x="0" y="0" class="key tap">H</text>
</g>
<g transform="translate(595, 114)" class="key keypos-16">
<rect rx="6" ry="6" x="-33" y="-33" width="66" height="66" class="key"/>
<text x="0" y="0" class="key tap">J</text>
<text x="0" y="31" class="key hold">Shift</text>
</g>
<g transform="translate(665, 105)" class="key keypos-17">
<rect rx="6" ry="6" x="-33" y="-33" width="66" height="66" class="key"/>
<text x="0" y="0" class="key tap">K</text>
<text x="0" y="31" class="key hold">Control</text>
</g>
<g transform="translate(735, 114)" class="key keypos-18">
<rect rx="6" ry="6" x="-33" y="-33" width="66" height="66" class="key"/>
<text x="0" y="0" class="key tap">L</text>
<text x="0" y="31" class="key hold">Alt</text>
</g>
<g transform="translate(805, 131)" class="key keypos-19">
<rect rx="6" ry="6" x="-33" y="-33" width="66" height="66" class="key"/>
<text x="0" y="0" class="key tap">;</text>
<text x="0" y="31" class="key hold">Gui</text>
<text x="0" y="-31" class="key shifted">:</text>
</g>
<g transform="translate(35, 201)" class="key keypos-20">
<rect rx="6" ry="6" x="-33" y="-33" width="66" height="66" class="key"/>
<text x="0" y="0" class="key tap">Z</text>
</g>
<g transform="translate(105, 184)" class="key keypos-21">
<rect rx="6" ry="6" x="-33" y="-33" width="66" height="66" class="key"/>
<text x="0" y="0" class="key tap">X</text>
</g>
<g transform="translate(175, 175)" class="key keypos-22">
<rect rx="6" ry="6" x="-33" y="-33" width="66" height="66" class="key"/>
<text x="0" y="0" class="key tap">C</text>
</g>
<g transform="translate(245, 184)" class="key keypos-23">
<rect rx="6" ry="6" x="-33" y="-33" width="66" height="66" class="key"/>
<text x="0" y="0" class="key tap">V</text>
</g>
<g transform="translate(315, 201)" class="key keypos-24">
<rect rx="6" ry="6" x="-33" y="-33" width="66" height="66" class="key"/>
<text x="0" y="0" class="key tap">B</text>
</g>
<g transform="translate(525, 201)" class="key keypos-25">
<rect rx="6" ry="6" x="-33" y="-33" width="66" height="66" class="key"/>
<text x="0" y="0" class="key tap">N</text>
</g>
<g transform="translate(595, 184)" class="key keypos-26">
<rect rx="6" ry="6" x="-33" y="-33" width="66" height="66" class="key"/>
<text x="0" y="0" class="key tap">M</text>
</g>
<g transform="translate(665, 175)" class="key keypos-27">
<rect rx="6" ry="6" x="-33" y="-33" width="66" height="66" class="key"/>
<text x="0" y="0" class="key tap">,</text>
<text x="0" y="-31" class="key shifted">&lt;</text>
</g>
<g transform="translate(735, 184)" class="key keypos-28">
<rect rx="6" ry="6" x="-33" y="-33" width="66" height="66" class="key"/>
<text x="0" y="0" class="key tap">.</text>
<text x="0" y="-31" class="key shifted">&gt;</text>
</g>
<g transform="translate(805, 201)" class="key keypos-29">
<rect rx="6" ry="6" x="-33" y="-33" width="66" height="66" class="key"/>
<text x="0" y="0" class="key tap">/</text>
<text x="0" y="-31" class="key shifted">?</text>
</g>
<g transform="translate(175, 315)" class="key keypos-30">
<rect rx="6" ry="6" x="-33" y="-33" width="66" height="66" class="key"/>
<text x="0" y="0" class="key tap">Esc</text>
</g>
<g transform="translate(245, 324)" class="key keypos-31">
<rect rx="6" ry="6" x="-33" y="-33" width="66" height="66" class="key"/>
<text x="0" y="0" class="key tap">Space</text>
<text x="0" y="31" class="key hold">Nav</text>
</g>
<g transform="translate(315, 341)" class="key keypos-32">
<rect rx="6" ry="6" x="-33" y="-33" width="66" height="66" class="key"/>
<text x="0" y="0" class="key tap">Tab</text>
<text x="0" y="31" class="key hold">Sym</text>
</g>
<g transform="translate(525, 341)" class="key keypos-33">
<rect rx="6" ry="6" x="-33" y="-33" width="66" height="66" class="key"/>
<text x="0" y="0" class="key tap">Enter</text>
<text x="0" y="31" class="key hold">Num</text>
</g>
<g transform="translate(595, 324)" class="key keypos-34">
<rect rx="6" ry="6" x="-33" y="-33" width="66" height="66" class="key"/>
<text x="0" y="0" class="key tap">Bckspc</text>
</g>
<g transform="translate(665, 315)" class="key keypos-35">
<rect rx="6" ry="6" x="-33" y="-33" width="66" height="66" class="key"/>
<text x="0" y="0" class="key tap">Delete</text>
</g>
</g>
</g>
<g transform="translate(30, 432)" class="layer-Nav">
<text x="0" y="28" class="label">Nav:</text>
<g transform="translate(0, 56)">
<g transform="translate(35, 61)" class="key keypos-0">
<rect rx="6" ry="6" x="-33" y="-33" width="66" height="66" class="key"/>
</g>
<g transform="translate(105, 44)" class="key keypos-1">
<rect rx="6" ry="6" x="-33" y="-33" width="66" height="66" class="key"/>
</g>
<g transform="translate(175, 35)" class="key keypos-2">
<rect rx="6" ry="6" x="-33" y="-33" width="66" height="66" class="key"/>
</g>
<g transform="translate(245, 44)" class="key keypos-3">
<rect rx="6" ry="6" x="-33" y="-33" width="66" height="66" class="key"/>
</g>
<g transform="translate(315, 61)" class="key keypos-4">
<rect rx="6" ry="6" x="-33" y="-33" width="66" height="66" class="key"/>
</g>
<g transform="translate(525, 61)" class="key keypos-5">
<rect rx="6" ry="6" x="-33" y="-33" width="66" height="66" class="key"/>
</g>
<g transform="translate(595, 44)" class="key keypos-6">
<rect rx="6" ry="6" x="-33" y="-33" width="66" height="66" class="key"/>
</g>
<g transform="translate(665, 35)" class="key keypos-7">
<rect rx="6" ry="6" x="-33" y="-33" width="66" height="66" class="key"/>
</g>
<g transform="translate(735, 44)" class="key keypos-8">
<rect rx="6" ry="6" x="-33" y="-33" width="66" height="66" class="key"/>
</g>
<g transform="translate(805, 61)" class="key keypos-9">
<rect rx="6" ry="6" x="-33" y="-33" width="66" height="66" class="key"/>
</g>
<g transform="translate(35, 131)" class="key keypos-10">
<rect rx="6" ry="6" x="-33" y="-33" width="66" height="66" class="key"/>
<text x="0" y="0" class="key tap">Right</text>
</g>
<g transform="translate(105, 114)" class="key keypos-11">
<rect rx="6" ry="6" x="-33" y="-33" width="66" height="66" class="key"/>
<text x="0" y="0" class="key tap">Down</text>
</g>
<g transform="translate(175, 105)" class="key keypos-12">
<rect rx="6" ry="6" x="-33" y="-33" width="66" height="66" class="key"/>
<text x="0" y="0" class="key tap">Up</text>
</g>
<g transform="translate(245, 114)" class="key keypos-13">
<rect rx="6" ry="6" x="-33" y="-33" width="66" height="66" class="key"/>
<text x="0" y="0" class="key tap">Left</text>
</g>
<g transform="translate(315, 131)" class="key keypos-14">
<rect rx="6" ry="6" x="-33" y="-33" width="66" height="66" class="key"/>
</g>
<g transform="translate(525, 131)" class="key keypos-15">
<rect rx="6" ry="6" x="-33" y="-33" width="66" height="66" class="key"/>
</g>
<g transform="translate(595, 114)" class="key keypos-16">
<rect rx="6" ry="6" x="-33" y="-33" width="66" height="66" class="key"/>
<text x="0" y="0" class="key tap">Left</text>
</g>
<g transform="translate(665, 105)" class="key keypos-17">
<rect rx="6" ry="6" x="-33" y="-33" width="66" height="66" class="key"/>
<text x="0" y="0" class="key tap">Down</text>
</g>
<g transform="translate(735, 114)" class="key keypos-18">
<rect rx="6" ry="6" x="-33" y="-33" width="66" height="66" class="key"/>
<text x="0" y="0" class="key tap">Up</text>
</g>
<g transform="translate(805, 131)" class="key keypos-19">
<rect rx="6" ry="6" x="-33" y="-33" width="66" height="66" class="key"/>
<text x="0" y="0" class="key tap">Right</text>
</g>
<g transform="translate(35, 201)" class="key keypos-20">
<rect rx="6" ry="6" x="-33" y="-33" width="66" height="66" class="key"/>
</g>
<g transform="translate(105, 184)" class="key keypos-21">
<rect rx="6" ry="6" x="-33" y="-33" width="66" height="66" class="key"/>
</g>
<g transform="translate(175, 175)" class="key keypos-22">
<rect rx="6" ry="6" x="-33" y="-33" width="66" height="66" class="key"/>
</g>
<g transform="translate(245, 184)" class="key keypos-23">
<rect rx="6" ry="6" x="-33" y="-33" width="66" height="66" class="key"/>
</g>
<g transform="translate(315, 201)" class="key keypos-24">
<rect rx="6" ry="6" x="-33" y="-33" width="66" height="66" class="key"/>
</g>
<g transform="translate(525, 201)" class="key keypos-25">
<rect rx="6" ry="6" x="-33" y="-33" width="66" height="66" class="key"/>
</g>
<g transform="translate(595, 184)" class="key keypos-26">
<rect rx="6" ry="6" x="-33" y="-33" width="66" height="66" class="key"/>
</g>
<g transform="translate(665, 175)" class="key keypos-27">
<rect rx="6" ry="6" x="-33" y="-33" width="66" height="66" class="key"/>
<text x="0" y="0" class="key tap">
<tspan x="0" dy="-0.5em">Volume</tspan><tspan x="0" dy="1.0em">Down</tspan>
</text>
</g>
<g transform="translate(735, 184)" class="key keypos-28">
<rect rx="6" ry="6" x="-33" y="-33" width="66" height="66" class="key"/>
<text x="0" y="0" class="key tap">
<tspan x="0" dy="-0.5em">Volume</tspan><tspan x="0" dy="1.0em">Up</tspan>
</text>
</g>
<g transform="translate(805, 201)" class="key keypos-29">
<rect rx="6" ry="6" x="-33" y="-33" width="66" height="66" class="key"/>
<text x="0" y="0" class="key tap">Play</text>
</g>
<g transform="translate(175, 315)" class="key keypos-30">
<rect rx="6" ry="6" x="-33" y="-33" width="66" height="66" class="key"/>
</g>
<g transform="translate(245, 324)" class="key held keypos-31">
<rect rx="6" ry="6" x="-33" y="-33" width="66" height="66" class="key held"/>
</g>
<g transform="translate(315, 341)" class="key keypos-32">
<rect rx="6" ry="6" x="-33" y="-33" width="66" height="66" class="key"/>
</g>
<g transform="translate(525, 341)" class="key keypos-33">
<rect rx="6" ry="6" x="-33" y="-33" width="66" height="66" class="key"/>
</g>
<g transform="translate(595, 324)" class="key keypos-34">
<rect rx="6" ry="6" x="-33" y="-33" width="66" height="66" class="key"/>
</g>
<g transform="translate(665, 315)" class="key keypos-35">
<rect rx="6" ry="6" x="-33" y="-33" width="66" height="66" class="key"/>
</g>
</g>
</g>
<g transform="translate(30, 864)" class="layer-Sym">
<text x="0" y="28" class="label">Sym:</text>
<g transform="translate(0, 56)">
<g transform="translate(35, 61)" class="key keypos-0">
<rect rx="6" ry="6" x="-33" y="-33" width="66" height="66" class="key"/>
<text x="0" y="0" class="key tap">!</text>
</g>
<g transform="translate(105, 44)" class="key keypos-1">
<rect rx="6" ry="6" x="-33" y="-33" width="66" height="66" class="key"/>
<text x="0" y="0" class="key tap">@</text>
</g>
<g transform="translate(175, 35)" class="key keypos-2">
<rect rx="6" ry="6" x="-33" y="-33" width="66" height="66" class="key"/>
<text x="0" y="0" class="key tap">#</text>
</g>
<g transform="translate(245, 44)" class="key keypos-3">
<rect rx="6" ry="6" x="-33" y="-33" width="66" height="66" class="key"/>
<text x="0" y="0" class="key tap">$</text>
</g>
<g transform="translate(315, 61)" class="key keypos-4">
<rect rx="6" ry="6" x="-33" y="-33" width="66" height="66" class="key"/>
<text x="0" y="0" class="key tap">%</text>
</g>
<g transform="translate(525, 61)" class="key keypos-5">
<rect rx="6" ry="6" x="-33" y="-33" width="66" height="66" class="key"/>
<text x="0" y="0" class="key tap">^</text>
</g>
<g transform="translate(595, 44)" class="key keypos-6">
<rect rx="6" ry="6" x="-33" y="-33" width="66" height="66" class="key"/>
<text x="0" y="0" class="key tap">&amp;</text>
</g>
<g transform="translate(665, 35)" class="key keypos-7">
<rect rx="6" ry="6" x="-33" y="-33" width="66" height="66" class="key"/>
<text x="0" y="0" class="key tap">*</text>
</g>
<g transform="translate(735, 44)" class="key keypos-8">
<rect rx="6" ry="6" x="-33" y="-33" width="66" height="66" class="key"/>
<text x="0" y="0" class="key tap">(</text>
</g>
<g transform="translate(805, 61)" class="key keypos-9">
<rect rx="6" ry="6" x="-33" y="-33" width="66" height="66" class="key"/>
<text x="0" y="0" class="key tap">)</text>
</g>
<g transform="translate(35, 131)" class="key keypos-10">
<rect rx="6" ry="6" x="-33" y="-33" width="66" height="66" class="key"/>
<text x="0" y="0" class="key tap">`</text>
</g>
<g transform="translate(105, 114)" class="key keypos-11">
<rect rx="6" ry="6" x="-33" y="-33" width="66" height="66" class="key"/>
<text x="0" y="0" class="key tap">~</text>
</g>
<g transform="translate(175, 105)" class="key keypos-12">
<rect rx="6" ry="6" x="-33" y="-33" width="66" height="66" class="key"/>
<text x="0" y="0" class="key tap">&#x27;</text>
</g>
<g transform="translate(245, 114)" class="key keypos-13">
<rect rx="6" ry="6" x="-33" y="-33" width="66" height="66" class="key"/>
<text x="0" y="0" class="key tap">&quot;</text>
</g>
<g transform="translate(315, 131)" class="key keypos-14">
<rect rx="6" ry="6" x="-33" y="-33" width="66" height="66" class="key"/>
</g>
<g transform="translate(525, 131)" class="key keypos-15">
<rect rx="6" ry="6" x="-33" y="-33" width="66" height="66" class="key"/>
<text x="0" y="0" class="key tap">+</text>
</g>
<g transform="translate(595, 114)" class="key keypos-16">
<rect rx="6" ry="6" x="-33" y="-33" width="66" height="66" class="key"/>
<text x="0" y="0" class="key tap">_</text>
</g>
<g transform="translate(665, 105)" class="key keypos-17">
<rect rx="6" ry="6" x="-33" y="-33" width="66" height="66" class="key"/>
<text x="0" y="0" class="key tap">{</text>
</g>
<g transform="translate(735, 114)" class="key keypos-18">
<rect rx="6" ry="6" x="-33" y="-33" width="66" height="66" class="key"/>
<text x="0" y="0" class="key tap">}</text>
</g>
<g transform="translate(805, 131)" class="key keypos-19">
<rect rx="6" ry="6" x="-33" y="-33" width="66" height="66" class="key"/>
<text x="0" y="0" class="key tap">|</text>
</g>
<g transform="translate(35, 201)" class="key keypos-20">
<rect rx="6" ry="6" x="-33" y="-33" width="66" height="66" class="key"/>
</g>
<g transform="translate(105, 184)" class="key keypos-21">
<rect rx="6" ry="6" x="-33" y="-33" width="66" height="66" class="key"/>
</g>
<g transform="translate(175, 175)" class="key keypos-22">
<rect rx="6" ry="6" x="-33" y="-33" width="66" height="66" class="key"/>
</g>
<g transform="translate(245, 184)" class="key keypos-23">
<rect rx="6" ry="6" x="-33" y="-33" width="66" height="66" class="key"/>
</g>
<g transform="translate(315, 201)" class="key keypos-24">
<rect rx="6" ry="6" x="-33" y="-33" width="66" height="66" class="key"/>
</g>
<g transform="translate(525, 201)" class="key keypos-25">
<rect rx="6" ry="6" x="-33" y="-33" width="66" height="66" class="key"/>
</g>
<g transform="translate(595, 184)" class="key keypos-26">
<rect rx="6" ry="6" x="-33" y="-33" width="66" height="66" class="key"/>
</g>
<g transform="translate(665, 175)" class="key keypos-27">
<rect rx="6" ry="6" x="-33" y="-33" width="66" height="66" class="key"/>
</g>
<g transform="translate(735, 184)" class="key keypos-28">
<rect rx="6" ry="6" x="-33" y="-33" width="66" height="66" class="key"/>
</g>
<g transform="translate(805, 201)" class="key keypos-29">
<rect rx="6" ry="6" x="-33" y="-33" width="66" height="66" class="key"/>
</g>
<g transform="translate(175, 315)" class="key keypos-30">
<rect rx="6" ry="6" x="-33" y="-33" width="66" height="66" class="key"/>
</g>
<g transform="translate(245, 324)" class="key keypos-31">
<rect rx="6" ry="6" x="-33" y="-33" width="66" height="66" class="key"/>
</g>
<g transform="translate(315, 341)" class="key held keypos-32">
<rect rx="6" ry="6" x="-33" y="-33" width="66" height="66" class="key held"/>
</g>
<g transform="translate(525, 341)" class="key keypos-33">
<rect rx="6" ry="6" x="-33" y="-33" width="66" height="66" class="key"/>
</g>
<g transform="translate(595, 324)" class="key keypos-34">
<rect rx="6" ry="6" x="-33" y="-33" width="66" height="66" class="key"/>
</g>
<g transform="translate(665, 315)" class="key keypos-35">
<rect rx="6" ry="6" x="-33" y="-33" width="66" height="66" class="key"/>
</g>
</g>
</g>
<g transform="translate(30, 1297)" class="layer-Num">
<text x="0" y="28" class="label">Num:</text>
<g transform="translate(0, 56)">
<g transform="translate(35, 61)" class="key keypos-0">
<rect rx="6" ry="6" x="-33" y="-33" width="66" height="66" class="key"/>
<text x="0" y="0" class="key tap">1</text>
</g>
<g transform="translate(105, 44)" class="key keypos-1">
<rect rx="6" ry="6" x="-33" y="-33" width="66" height="66" class="key"/>
<text x="0" y="0" class="key tap">2</text>
</g>
<g transform="translate(175, 35)" class="key keypos-2">
<rect rx="6" ry="6" x="-33" y="-33" width="66" height="66" class="key"/>
<text x="0" y="0" class="key tap">3</text>
</g>
<g transform="translate(245, 44)" class="key keypos-3">
<rect rx="6" ry="6" x="-33" y="-33" width="66" height="66" class="key"/>
<text x="0" y="0" class="key tap">4</text>
</g>
<g transform="translate(315, 61)" class="key keypos-4">
<rect rx="6" ry="6" x="-33" y="-33" width="66" height="66" class="key"/>
<text x="0" y="0" class="key tap">5</text>
</g>
<g transform="translate(525, 61)" class="key keypos-5">
<rect rx="6" ry="6" x="-33" y="-33" width="66" height="66" class="key"/>
<text x="0" y="0" class="key tap">6</text>
</g>
<g transform="translate(595, 44)" class="key keypos-6">
<rect rx="6" ry="6" x="-33" y="-33" width="66" height="66" class="key"/>
<text x="0" y="0" class="key tap">7</text>
</g>
<g transform="translate(665, 35)" class="key keypos-7">
<rect rx="6" ry="6" x="-33" y="-33" width="66" height="66" class="key"/>
<text x="0" y="0" class="key tap">8</text>
</g>
<g transform="translate(735, 44)" class="key keypos-8">
<rect rx="6" ry="6" x="-33" y="-33" width="66" height="66" class="key"/>
<text x="0" y="0" class="key tap">9</text>
</g>
<g transform="translate(805, 61)" class="key keypos-9">
<rect rx="6" ry="6" x="-33" y="-33" width="66" height="66" class="key"/>
<text x="0" y="0" class="key tap">0</text>
</g>
<g transform="translate(35, 131)" class="key keypos-10">
<rect rx="6" ry="6" x="-33" y="-33" width="66" height="66" class="key"/>
</g>
<g transform="translate(105, 114)" class="key keypos-11">
<rect rx="6" ry="6" x="-33" y="-33" width="66" height="66" class="key"/>
</g>
<g transform="translate(175, 105)" class="key keypos-12">
<rect rx="6" ry="6" x="-33" y="-33" width="66" height="66" class="key"/>
</g>
<g transform="translate(245, 114)" class="key keypos-13">
<rect rx="6" ry="6" x="-33" y="-33" width="66" height="66" class="key"/>
</g>
<g transform="translate(315, 131)" class="key keypos-14">
<rect rx="6" ry="6" x="-33" y="-33" width="66" height="66" class="key"/>
</g>
<g transform="translate(525, 131)" class="key keypos-15">
<rect rx="6" ry="6" x="-33" y="-33" width="66" height="66" class="key"/>
<text x="0" y="0" class="key tap">=</text>
</g>
<g transform="translate(595, 114)" class="key keypos-16">
<rect rx="6" ry="6" x="-33" y="-33" width="66" height="66" class="key"/>
<text x="0" y="0" class="key tap">-</text>
</g>
<g transform="translate(665, 105)" class="key keypos-17">
<rect rx="6" ry="6" x="-33" y="-33" width="66" height="66" class="key"/>
<text x="0" y="0" class="key tap">[</text>
</g>
<g transform="translate(735, 114)" class="key keypos-18">
<rect rx="6" ry="6" x="-33" y="-33" width="66" height="66" class="key"/>
<text x="0" y="0" class="key tap">]</text>
</g>
<g transform="translate(805, 131)" class="key keypos-19">
<rect rx="6" ry="6" x="-33" y="-33" width="66" height="66" class="key"/>
<text x="0" y="0" class="key tap">\</text>
</g>
<g transform="translate(35, 201)" class="key keypos-20">
<rect rx="6" ry="6" x="-33" y="-33" width="66" height="66" class="key"/>
</g>
<g transform="translate(105, 184)" class="key keypos-21">
<rect rx="6" ry="6" x="-33" y="-33" width="66" height="66" class="key"/>
</g>
<g transform="translate(175, 175)" class="key keypos-22">
<rect rx="6" ry="6" x="-33" y="-33" width="66" height="66" class="key"/>
</g>
<g transform="translate(245, 184)" class="key keypos-23">
<rect rx="6" ry="6" x="-33" y="-33" width="66" height="66" class="key"/>
</g>
<g transform="translate(315, 201)" class="key keypos-24">
<rect rx="6" ry="6" x="-33" y="-33" width="66" height="66" class="key"/>
</g>
<g transform="translate(525, 201)" class="key keypos-25">
<rect rx="6" ry="6" x="-33" y="-33" width="66" height="66" class="key"/>
</g>
<g transform="translate(595, 184)" class="key keypos-26">
<rect rx="6" ry="6" x="-33" y="-33" width="66" height="66" class="key"/>
</g>
<g transform="translate(665, 175)" class="key keypos-27">
<rect rx="6" ry="6" x="-33" y="-33" width="66" height="66" class="key"/>
</g>
<g transform="translate(735, 184)" class="key keypos-28">
<rect rx="6" ry="6" x="-33" y="-33" width="66" height="66" class="key"/>
</g>
<g transform="translate(805, 201)" class="key keypos-29">
<rect rx="6" ry="6" x="-33" y="-33" width="66" height="66" class="key"/>
</g>
<g transform="translate(175, 315)" class="key keypos-30">
<rect rx="6" ry="6" x="-33" y="-33" width="66" height="66" class="key"/>
</g>
<g transform="translate(245, 324)" class="key keypos-31">
<rect rx="6" ry="6" x="-33" y="-33" width="66" height="66" class="key"/>
</g>
<g transform="translate(315, 341)" class="key keypos-32">
<rect rx="6" ry="6" x="-33" y="-33" width="66" height="66" class="key"/>
</g>
<g transform="translate(525, 341)" class="key held keypos-33">
<rect rx="6" ry="6" x="-33" y="-33" width="66" height="66" class="key held"/>
</g>
<g transform="translate(595, 324)" class="key keypos-34">
<rect rx="6" ry="6" x="-33" y="-33" width="66" height="66" class="key"/>
</g>
<g transform="translate(665, 315)" class="key keypos-35">
<rect rx="6" ry="6" x="-33" y="-33" width="66" height="66" class="key"/>
</g>
</g>
</g>
</svg>
